Coordinates
version=1
nRows=21
nColumns=27
inDegrees=yes

Units are S.I. units (second, meters, Newtons, ...)
If the header above contains a line with 'inDegrees', this indicates whether rotational values are in degrees (yes) or radians (no).

endheader
time	pelvis_rotation	pelvis_tilt	pelvis_list	pelvis_tx	pelvis_ty	pelvis_tz	hip_flexion_r	hip_adduction_r	hip_rotation_r	knee_angle_r	knee_rotation_r	knee_adduction_r	knee_angle_r_beta	ankle_angle_r	subtalar_angle_r	mtp_angle_r	hip_flexion_l	hip_adduction_l	hip_rotation_l	knee_angle_l	knee_rotation_l	knee_adduction_l	knee_angle_l_beta	ankle_angle_l	subtalar_angle_l	mtp_angle_l
      4.65500000	      2.65663912	    -29.60364364	      4.05905582	     -0.02587039	      0.58520883	     -1.15773382	    103.57163944	    -43.82498832	      6.05125833	     89.85614020	     -3.11138472	      9.91289575	      1.56828550	     15.04096860	      5.86932328	      0.00000000	     98.50303716	    -34.52204168	      7.05976930	     83.73239162	      1.07574362	     -9.92100806	      1.46140592	     13.93236053	     11.74297586	      0.00000000
      4.66000000	      2.53348949	    -29.62591554	      3.98031910	     -0.02595870	      0.58407531	     -1.15779249	    103.74860591	    -43.73980751	      6.04604294	     90.01824776	     -3.22040917	      9.91246887	      1.57111481	     15.14364849	      6.00215996	      0.00000000	     98.75319893	    -34.66464172	      7.13304997	     83.94556666	      0.96017431	     -9.92083853	      1.46512653	     14.03241739	     11.87085505	      0.00000000
      4.66500000	      2.61896820	    -29.61024434	      4.02120496	     -0.02608035	      0.58315425	     -1.15788296	    103.95357304	    -43.85897964	      6.03453050	     90.15357928	     -3.38685683	      9.91305282	      1.57347679	     15.11622577	      6.06616695	      0.00000000	     98.89946970	    -34.56551205	      7.08279948	     84.08970367	      0.79826917	     -9.92131384	      1.46764220	     14.04791313	     11.91488986	      0.00000000
      4.67000000	      2.55871558	    -29.59071660	      4.04844849	     -0.02618914	      0.58213428	     -1.15796148	    104.18821432	    -43.81316369	      6.10461712	     90.30651280	     -3.54087245	      9.91320912	      1.57614598	     15.15783822	      6.14956331	      0.00000000	     99.00794597	    -34.63758046	      6.98185335	     84.25072937	      0.63130142	     -9.92144524	      1.47045262	     14.09143242	     12.02612627	      0.00000000
      4.67500000	      2.49047987	    -29.30600856	      4.00504162	     -0.02584377	      0.58106050	     -1.15800983	    104.04630438	    -43.87545737	      6.02421733	     90.48127766	     -3.75914050	      9.91183970	      1.57919621	     15.38947890	      6.84371555	      0.00000000	     98.88856849	    -34.77362681	      6.90291989	     84.44664738	      0.41320921	     -9.92041658	      1.47387204	     14.25683564	     12.60581796	      0.00000000
      4.68000000	      2.57606686	    -29.53001249	      4.16789800	     -0.02634949	      0.58002974	     -1.15810533	    104.68801104	    -43.87615362	      6.32727667	     90.63872063	     -3.80600387	      9.91349253	      1.58194410	     15.24159695	      6.37176056	      0.00000000	     99.20427700	    -34.65064011	      6.76354473	     84.57909110	      0.29725924	     -9.92177831	      1.47618362	     14.23530623	     12.21565736	      0.00000000
      4.68500000	      2.60255072	    -29.55737950	      3.96580139	     -0.02646258	      0.57898759	     -1.15814028	    104.67385709	    -43.99800469	      5.98217268	     90.75710995	     -3.97704386	      9.91367968	      1.58401039	     15.28630700	      6.48641964	      0.00000000	     99.60816241	    -34.58430536	      7.10006513	     84.78312574	      0.20981674	     -9.92197274	      1.47974469	     14.27382975	     12.25120401	      0.00000000
      4.69000000	      2.52971502	    -29.56191886	      3.85764312	     -0.02656324	      0.57790207	     -1.15812596	    104.78262784	    -43.96300389	      5.81578356	     90.90655501	     -4.16981548	      9.91388772	      1.58661870	     15.35077307	      6.55229740	      0.00000000	     99.88139566	    -34.67020369	      7.20594420	     84.97442242	      0.06718315	     -9.92220682	      1.48308345	     14.30207313	     12.38176674	      0.00000000
      4.69500000	      2.62980870	    -29.44493514	      4.08139807	     -0.02657420	      0.57677432	     -1.15819132	    105.13038151	    -44.06897969	      6.16050561	     91.11177695	     -4.29584948	      9.91400572	      1.59020050	     15.42947449	      6.74463721	      0.00000000	     99.77623082	    -34.61822803	      6.88235387	     85.11231761	     -0.13427144	     -9.92237285	      1.48549018	     14.39588135	     12.52715486	      0.00000000
      4.70000000	      2.56997486	    -29.45548478	      4.04471868	     -0.02664488	      0.57564328	     -1.15817225	    105.33459794	    -44.03329324	      6.13104572	     91.28348911	     -4.46176265	      9.91412319	      1.59319744	     15.49162095	      6.80890352	      0.00000000	    100.00108814	    -34.71540530	      6.88609932	     85.29974313	     -0.28568653	     -9.92250668	      1.48876137	     14.42558421	     12.66445255	      0.00000000
      4.70500000	      2.50038615	    -29.38200669	      4.14933144	     -0.02671755	      0.57445463	     -1.15816937	    105.63751688	    -43.94881857	      6.35704144	     91.47635126	     -4.60516343	      9.91433983	      1.59656352	     15.48425928	      6.90154511	      0.00000000	    100.00236233	    -34.84080993	      6.66722607	     85.46113757	     -0.47318975	     -9.92267001	      1.49157823	     14.51608651	     12.83556773	      0.00000000
      4.71000000	      2.48030450	    -29.41308524	      3.95542994	     -0.02677384	      0.57332096	     -1.15810650	    105.66000880	    -44.00670320	      6.01920224	     91.62290537	     -4.81615604	      9.91449914	      1.59912137	     15.56447770	      6.97312107	      0.00000000	    100.40465809	    -34.85700277	      6.94084913	     85.66917153	     -0.59631955	     -9.92294091	      1.49520911	     14.54299940	     12.96560494	      0.00000000
      4.71500000	      2.59140439	    -29.32424734	      3.98579665	     -0.02677554	      0.57211166	     -1.15810094	    105.81594942	    -44.16702277	      6.04459495	     91.82135424	     -4.97933160	      9.91473180	      1.60258496	     15.69495386	      7.15397474	      0.00000000	    100.52221088	    -34.76429624	      6.93171145	     85.84339006	     -0.75859347	     -9.92307315	      1.49824980	     14.60506813	     13.09650178	      0.00000000
      4.72000000	      2.57835312	    -29.30115896	      3.97301268	     -0.02678332	      0.57089470	     -1.15805826	    106.02310798	    -44.18805827	      6.03608787	     92.00805025	     -5.14983662	      9.91486427	      1.60584342	     15.71572623	      7.23146625	      0.00000000	    100.71613132	    -34.81850859	      6.91647598	     86.03130460	     -0.92716071	     -9.92332216	      1.50152952	     14.64358214	     13.22888514	      0.00000000
      4.72500000	      2.58154712	    -29.23643952	      4.06373262	     -0.02675701	      0.56961031	     -1.15801629	    106.31662909	    -44.19606459	      6.21011821	     92.22357942	     -5.30553399	      9.91515174	      1.60960511	     15.76454551	      7.31400266	      0.00000000	    100.78004385	    -34.88059367	      6.76572176	     86.20894612	     -1.10714087	     -9.92351597	      1.50462995	     14.70784734	     13.39603632	      0.00000000
      4.73000000	      2.46508290	    -29.21050187	      3.87968761	     -0.02676867	      0.56843259	     -1.15791386	    106.31924417	    -44.12520437	      5.93617579	     92.38009123	     -5.52297595	      9.91529220	      1.61233676	     15.79164694	      7.35438713	      0.00000000	    101.08789632	    -35.01656322	      6.96432709	     86.41532750	     -1.25170737	     -9.92368758	      1.50823199	     14.74048352	     13.59585592	      0.00000000
      4.73500000	      2.50871750	    -29.12968399	      4.10811176	     -0.02671612	      0.56708055	     -1.15788041	    106.76414805	    -44.13065247	      6.36134110	     92.63234300	     -5.63542352	      9.91557213	      1.61673938	     15.84888859	      7.43234614	      0.00000000	    101.03365475	    -35.07357870	      6.61384106	     86.57687831	     -1.45787116	     -9.92404213	      1.51105158	     14.81628080	     13.74891049	      0.00000000
      4.74000000	      2.39810663	    -29.05131292	      4.12961719	     -0.02672101	      0.56577851	     -1.15775623	    106.97207125	    -43.98845522	      6.45049633	     92.84032456	     -5.81974700	      9.91578605	      1.62036934	     15.90921580	      7.44459961	      0.00000000	    101.11368011	    -35.26065767	      6.53204605	     86.75501447	     -1.61293466	     -9.92444675	      1.51416065	     14.85559857	     13.96138957	      0.00000000
      4.74500000	      2.40177017	    -29.04410029	      3.95173719	     -0.02657632	      0.56450195	     -1.15766749	    106.99267674	    -44.08443258	      6.16354232	     93.01978730	     -6.01855842	      9.91600415	      1.62350156	     15.96636765	      7.51634756	      0.00000000	    101.48907361	    -35.27489665	      6.77904201	     86.98495323	     -1.76025146	     -9.92461046	      1.51817383	     14.92464087	     14.12090195	      0.00000000
      4.75000000	      2.46156323	    -28.91046530	      3.73970631	     -0.02634909	      0.56310588	     -1.15758806	    106.86310772	    -44.28338316	      5.80159917	     93.21510660	     -6.27136891	      9.91521369	      1.62691052	     16.06390100	      7.92107301	      0.00000000	    101.79204996	    -35.23041649	      7.18920749	     87.23052492	     -1.82760236	     -9.92413049	      1.52245987	     14.96945815	     14.45438737	      0.00000000
      4.75500000	      2.43955795	    -28.92239534	      3.88704191	     -0.02639523	      0.56192702	     -1.15750701	    107.26601784	    -44.16685612	      6.04956278	     93.42104354	     -6.41927237	      9.91652834	      1.63050480	     16.08586307	      7.59454080	      0.00000000	    101.86346587	    -35.31203772	      6.88167692	     87.37226337	     -2.06566413	     -9.92512106	      1.52493367	     15.01046645	     14.41172980	      0.00000000
